<svg width="114.000000" height="37.000000" viewBox="0 0 114 37" fill="none" xmlns="http://www.w3.org/2000/svg" xmlns:xlink="http://www.w3.org/1999/xlink">
	<desc>
			Created with Pixso.
	</desc>
	<defs>
		<clipPath id="clip2_11900">
			<rect id="Logotype" rx="0.000000" width="36.085960" height="36.780228" transform="translate(0.109887 0.109887)" fill="white" fill-opacity="0"/>
		</clipPath>
	</defs>
	<g clip-path="url(#clip2_11900)">
		<path id="BG" d="M0 15.15C0 9.85 0 7.19 1.01 5.17C1.9 3.38 3.32 1.94 5.07 1.03C7.06 0 9.66 0 14.87 0L21.43 0C26.64 0 29.24 0 31.23 1.03C32.98 1.94 34.4 3.38 35.29 5.17C36.3 7.19 36.3 9.85 36.3 15.15L36.3 21.84C36.3 27.14 36.3 29.8 35.29 31.82C34.4 33.61 32.98 35.05 31.23 35.96C29.24 37 26.64 37 21.43 37L14.87 37C9.66 37 7.06 37 5.07 35.96C3.32 35.05 1.9 33.61 1.01 31.82C0 29.8 0 27.14 0 21.84L0 15.15Z" fill="#FFFFFF" fill-opacity="1.000000" fill-rule="nonzero"/>
		<path id="pin" d="M26.81 7.64C28.01 7.64 28.79 8.5 28.79 9.8L28.79 17.13C28.79 18.77 28.79 18.12 28.79 18.5C28.79 18.87 28.79 18.5 28.79 19.86L28.79 27.2C28.79 28.51 28.01 29.35 26.81 29.35C24.1 29.35 21.34 27.21 19.9 23.64C19.82 23.44 19.78 23.34 19.72 23.27C19.67 23.21 19.61 23.16 19.53 23.13C19.45 23.1 19.35 23.09 19.15 23.07L14.13 22.71C13.93 22.7 13.83 22.69 13.75 22.72C13.67 22.74 13.6 22.78 13.54 22.83C13.47 22.89 13.42 22.98 13.32 23.16C12.29 24.97 11.19 26.4 10.38 27.04C9.92 27.42 9.43 27.6 9.01 27.6C8.15 27.6 7.5 26.92 7.5 25.87L7.5 11.12C7.5 10.09 8.15 9.39 9.01 9.39C9.43 9.39 9.92 9.57 10.38 9.95C11.19 10.59 12.29 12.02 13.32 13.83C13.42 14.01 13.47 14.1 13.54 14.16C13.6 14.22 13.67 14.25 13.75 14.27C13.83 14.3 13.93 14.29 14.13 14.28L19.15 13.92C19.35 13.9 19.45 13.89 19.53 13.86C19.61 13.83 19.67 13.78 19.72 13.72C19.78 13.65 19.82 13.55 19.9 13.35C21.34 9.78 24.1 7.64 26.81 7.64Z" fill="#0D6EFD" fill-opacity="1.000000" fill-rule="nonzero"/>
	</g>
	<rect id="Logotype/logo_name" rx="0.000000" width="74.701897" height="25.812090" transform="translate(39.254890 8.702158)" fill="#FFFFFF" fill-opacity="0"/>
	<path id="pin" d="M97.59 11.89C97.96 12.25 98.41 12.42 98.93 12.42C99.46 12.42 99.9 12.25 100.27 11.89C100.65 11.54 100.83 11.11 100.83 10.61C100.83 10.11 100.65 9.69 100.27 9.34C99.9 8.98 99.46 8.8 98.93 8.8C98.41 8.8 97.96 8.98 97.59 9.34C97.22 9.69 97.04 10.11 97.04 10.61C97.04 11.11 97.22 11.54 97.59 11.89ZM83.86 30.43C83.86 30.59 83.86 30.73 83.86 30.84C83.87 32.71 85.18 34.63 85.69 34.63C86.18 34.63 87.49 32.7 87.49 30.82L87.43 24.94L87.44 24.94C87.46 24.94 87.49 24.95 87.5 24.98C87.66 25.32 87.88 25.66 88.17 26C88.48 26.35 88.86 26.64 89.34 26.87C89.82 27.1 90.4 27.22 91.08 27.22C92.04 27.22 92.91 26.96 93.69 26.46C94.47 25.95 95.08 25.2 95.53 24.21C95.99 23.22 96.22 22 96.22 20.56C96.22 19.08 95.99 17.85 95.52 16.87C95.05 15.89 94.42 15.15 93.64 14.66C92.86 14.17 92.01 13.92 91.09 13.92C90.38 13.92 89.78 14.04 89.3 14.29C88.83 14.53 88.45 14.83 88.15 15.2C87.87 15.54 87.66 15.87 87.51 16.2C87.49 16.24 87.46 16.26 87.42 16.26C87.37 16.26 87.32 16.22 87.32 16.16L87.32 15.17C87.32 14.99 87.32 14.9 87.31 14.82C87.25 14.46 86.96 14.17 86.6 14.1C86.53 14.09 86.44 14.09 86.26 14.09L85.25 14.09C84.76 14.09 84.52 14.09 84.33 14.19C84.17 14.27 84.04 14.41 83.95 14.57C83.86 14.76 83.86 15.01 83.86 15.51L83.86 30.43ZM105.62 19.54L105.62 25.58C105.62 26.08 105.62 26.33 105.52 26.52C105.44 26.69 105.31 26.82 105.14 26.91C104.96 27.01 104.71 27.01 104.23 27.01L103.5 27.01C103.01 27.01 102.77 27.01 102.58 26.91C102.42 26.82 102.28 26.69 102.2 26.52C102.1 26.33 102.1 26.08 102.1 25.58L102.1 15.51C102.1 15.01 102.1 14.76 102.2 14.57C102.28 14.41 102.42 14.27 102.58 14.19C102.77 14.09 103.01 14.09 103.5 14.09L104.34 14.09C104.57 14.09 104.68 14.09 104.78 14.11C105.1 14.19 105.36 14.45 105.43 14.78C105.45 14.88 105.45 14.99 105.45 15.23L105.45 16.28C105.45 16.33 105.49 16.37 105.54 16.37C105.58 16.37 105.61 16.34 105.63 16.31C105.91 15.59 106.37 15.01 107.02 14.59C107.68 14.14 108.48 13.92 109.42 13.92C110.3 13.92 111.06 14.12 111.72 14.51C112.37 14.9 112.88 15.46 113.24 16.19C113.61 16.91 113.79 17.78 113.79 18.78L113.79 25.58C113.79 26.08 113.79 26.33 113.69 26.52C113.61 26.69 113.48 26.82 113.31 26.91C113.13 27.01 112.88 27.01 112.39 27.01L111.67 27.01C111.18 27.01 110.94 27.01 110.75 26.91C110.59 26.82 110.45 26.69 110.37 26.52C110.27 26.33 110.27 26.08 110.27 25.58L110.27 19.42C110.28 18.63 110.08 18.01 109.68 17.57C109.28 17.12 108.73 16.9 108.02 16.9C107.55 16.9 107.13 17 106.77 17.21C106.41 17.42 106.13 17.72 105.93 18.12C105.73 18.51 105.63 18.98 105.62 19.54ZM98.56 27.01C98.08 27.01 97.83 27.01 97.64 26.91C97.48 26.82 97.35 26.69 97.26 26.52C97.17 26.33 97.17 26.08 97.17 25.58L97.17 15.51C97.17 15.01 97.17 14.76 97.26 14.57C97.35 14.41 97.48 14.27 97.64 14.19C97.83 14.09 98.08 14.09 98.56 14.09L99.29 14.09C99.78 14.09 100.02 14.09 100.21 14.19C100.37 14.27 100.51 14.41 100.59 14.57C100.68 14.76 100.68 15.01 100.68 15.51L100.68 25.58C100.68 26.08 100.68 26.33 100.59 26.52C100.51 26.69 100.37 26.82 100.21 26.91C100.02 27.01 99.78 27.01 99.29 27.01L98.56 27.01ZM87.3 20.55C87.3 21.32 87.4 21.99 87.61 22.56C87.82 23.13 88.12 23.57 88.52 23.89C88.92 24.21 89.4 24.37 89.96 24.37C90.54 24.37 91.02 24.21 91.42 23.89C91.81 23.56 92.11 23.11 92.32 22.54C92.52 21.96 92.63 21.3 92.63 20.55C92.63 19.8 92.53 19.15 92.32 18.58C92.12 18.01 91.82 17.57 91.42 17.25C91.03 16.93 90.54 16.77 89.96 16.77C89.39 16.77 88.91 16.93 88.51 17.23C88.12 17.54 87.82 17.98 87.61 18.55C87.4 19.11 87.3 19.78 87.3 20.55Z" fill="#FFFFFF" fill-opacity="1.000000" fill-rule="evenodd"/>
	<path id="well" d="M43.87 26.39L39.51 10.86C39.41 10.49 39.35 10.31 39.4 10.16C39.43 10.04 39.51 9.93 39.62 9.86C39.75 9.78 39.94 9.78 40.32 9.78L42.44 9.78C42.68 9.78 42.8 9.78 42.9 9.83C42.99 9.86 43.06 9.92 43.12 10C43.18 10.09 43.21 10.2 43.26 10.43L45.89 21.68C45.89 21.72 45.93 21.75 45.98 21.75C46.02 21.75 46.05 21.72 46.06 21.68L48.97 10.42C49.03 10.19 49.06 10.08 49.12 9.99C49.18 9.92 49.25 9.86 49.34 9.82C49.43 9.78 49.55 9.78 49.79 9.78L51.82 9.78C52.05 9.78 52.17 9.78 52.27 9.82C52.35 9.86 52.43 9.92 52.49 9.99C52.55 10.08 52.58 10.19 52.64 10.42L55.53 21.7C55.54 21.75 55.58 21.77 55.63 21.77C55.67 21.77 55.72 21.74 55.72 21.7L58.34 10.44C58.4 10.2 58.43 10.09 58.49 10C58.55 9.92 58.62 9.86 58.71 9.83C58.81 9.78 58.93 9.78 59.17 9.78L61.29 9.78C61.66 9.78 61.85 9.78 61.98 9.86C62.09 9.93 62.17 10.04 62.21 10.16C62.25 10.31 62.2 10.49 62.1 10.86L57.74 26.39C57.68 26.61 57.65 26.72 57.58 26.8C57.52 26.87 57.45 26.93 57.37 26.97C57.27 27 57.16 27 56.92 27L54.72 27C54.49 27 54.38 27 54.28 26.97C54.2 26.93 54.12 26.88 54.07 26.8C54 26.72 53.97 26.61 53.91 26.39L50.88 15.81C50.87 15.77 50.84 15.75 50.8 15.75C50.76 15.75 50.73 15.77 50.72 15.81L47.7 26.39C47.64 26.61 47.6 26.72 47.54 26.8C47.48 26.87 47.41 26.93 47.33 26.97C47.23 27 47.11 27 46.89 27L44.68 27C44.45 27 44.34 27 44.24 26.97C44.16 26.93 44.08 26.87 44.02 26.8C43.96 26.72 43.93 26.61 43.87 26.39ZM67.27 27.26C65.96 27.26 64.84 26.99 63.9 26.45C62.97 25.91 62.25 25.14 61.74 24.15C61.23 23.15 60.98 21.97 60.98 20.61C60.98 19.28 61.23 18.11 61.74 17.11C62.25 16.1 62.96 15.32 63.88 14.76C64.8 14.2 65.88 13.92 67.13 13.92C67.96 13.92 68.74 14.06 69.46 14.33C70.19 14.6 70.82 15.01 71.36 15.55C71.9 16.1 72.33 16.78 72.63 17.6C72.93 18.42 73.08 19.38 73.08 20.48L73.08 20.62C73.08 20.91 73.08 21.06 73.03 21.18C72.98 21.27 72.9 21.36 72.8 21.41C72.68 21.46 72.54 21.46 72.24 21.46L63.23 21.46C62.93 21.46 62.78 21.46 62.67 21.41C62.57 21.36 62.49 21.27 62.44 21.18C62.38 21.06 62.38 20.91 62.38 20.62L62.38 20.09C62.38 19.79 62.38 19.64 62.44 19.53C62.49 19.43 62.57 19.35 62.67 19.3C62.78 19.24 62.93 19.24 63.23 19.24L69.25 19.24C69.54 19.24 69.78 19.01 69.73 18.72C69.68 18.41 69.59 18.13 69.45 17.87C69.23 17.47 68.92 17.16 68.53 16.94C68.14 16.71 67.7 16.59 67.18 16.59C66.65 16.59 66.18 16.72 65.76 16.97C65.36 17.22 65.04 17.55 64.81 17.97C64.58 18.39 64.46 18.85 64.45 19.36L64.45 21.47C64.45 22.11 64.57 22.66 64.8 23.13C65.04 23.59 65.37 23.95 65.8 24.21C66.23 24.46 66.74 24.58 67.33 24.58C67.72 24.58 68.07 24.53 68.4 24.41C68.72 24.3 69 24.13 69.23 23.91C69.37 23.77 69.49 23.62 69.59 23.44C69.71 23.24 69.92 23.1 70.15 23.11L72.41 23.26C72.73 23.29 72.95 23.59 72.85 23.89C72.66 24.45 72.38 24.95 72 25.39C71.49 25.98 70.83 26.44 70.03 26.77C69.23 27.09 68.31 27.26 67.27 27.26ZM77.5 10.63L77.5 26.16C77.5 26.46 77.5 26.6 77.44 26.72C77.39 26.82 77.31 26.9 77.21 26.95C77.1 27 76.95 27 76.66 27L74.83 27C74.53 27 74.38 27 74.27 26.95C74.17 26.9 74.09 26.82 74.04 26.72C73.98 26.6 73.98 26.46 73.98 26.16L73.98 10.63C73.98 10.33 73.98 10.18 74.04 10.07C74.09 9.97 74.17 9.89 74.27 9.84C74.38 9.78 74.53 9.78 74.83 9.78L76.66 9.78C76.95 9.78 77.1 9.78 77.21 9.84C77.31 9.89 77.39 9.97 77.44 10.07C77.5 10.18 77.5 10.33 77.5 10.63ZM82.44 10.63L82.44 26.16C82.44 26.46 82.44 26.6 82.38 26.72C82.33 26.82 82.25 26.9 82.15 26.95C82.03 27 81.89 27 81.59 27L79.76 27C79.47 27 79.32 27 79.21 26.95C79.11 26.9 79.03 26.82 78.98 26.72C78.92 26.6 78.92 26.46 78.92 26.16L78.92 10.63C78.92 10.33 78.92 10.18 78.98 10.07C79.03 9.97 79.11 9.89 79.21 9.84C79.32 9.78 79.47 9.78 79.76 9.78L81.59 9.78C81.89 9.78 82.03 9.78 82.15 9.84C82.25 9.89 82.33 9.97 82.38 10.07C82.44 10.18 82.44 10.33 82.44 10.63Z" fill="#FFFFFF" fill-opacity="1.000000" fill-rule="nonzero"/>
</svg>
