<svg width="175.839844" height="56.000000" viewBox="0 0 175.84 56" fill="none" xmlns="http://www.w3.org/2000/svg" xmlns:xlink="http://www.w3.org/1999/xlink">
	<desc>
			Created with Pixso.
	</desc>
	<defs>
		<clipPath id="clip2_8977">
			<rect id="Logotype" rx="0.000000" width="54.500000" height="54.500000" transform="translate(0.750000 0.750000)" fill="white" fill-opacity="0"/>
		</clipPath>
	</defs>
	<g clip-path="url(#clip2_8977)">
		<path id="BG" d="M0 22.93C0 14.9 0 10.89 1.56 7.82C2.93 5.12 5.13 2.93 7.82 1.56C10.89 0 14.9 0 22.93 0L33.06 0C41.09 0 45.1 0 48.17 1.56C50.86 2.93 53.06 5.12 54.43 7.82C56 10.89 56 14.9 56 22.93L56 33.06C56 41.09 56 45.1 54.43 48.17C53.06 50.87 50.86 53.06 48.17 54.43C45.1 56 41.09 56 33.06 56L22.93 56C14.9 56 10.89 56 7.82 54.43C5.13 53.06 2.93 50.87 1.56 48.17C0 45.1 0 41.09 0 33.06L0 22.93Z" fill="#0D6EFD" fill-opacity="1.000000" fill-rule="nonzero"/>
		<path id="pin" d="M41.36 11.57C43.2 11.57 44.42 12.86 44.42 14.83L44.42 25.93C44.42 28.41 44.42 27.42 44.42 28.01C44.42 28.57 44.42 28.01 44.42 30.06L44.42 41.18C44.42 43.15 43.2 44.42 41.36 44.42C37.18 44.42 32.92 41.19 30.7 35.79C30.58 35.48 30.51 35.33 30.42 35.22C30.34 35.13 30.25 35.06 30.13 35.01C30 34.96 29.85 34.95 29.54 34.93L21.79 34.38C21.49 34.36 21.34 34.35 21.2 34.38C21.08 34.42 20.98 34.47 20.88 34.55C20.78 34.65 20.7 34.78 20.54 35.05C18.95 37.8 17.26 39.95 16.01 40.93C15.3 41.51 14.55 41.78 13.9 41.78C12.57 41.78 11.57 40.74 11.57 39.16L11.57 16.83C11.57 15.27 12.57 14.21 13.9 14.21C14.55 14.21 15.3 14.48 16.01 15.06C17.26 16.04 18.95 18.19 20.54 20.94C20.7 21.21 20.78 21.34 20.88 21.44C20.98 21.52 21.08 21.57 21.2 21.61C21.34 21.64 21.49 21.63 21.79 21.61L29.54 21.06C29.85 21.04 30 21.03 30.13 20.98C30.25 20.93 30.34 20.86 30.42 20.77C30.51 20.66 30.58 20.51 30.7 20.2C32.92 14.8 37.18 11.57 41.36 11.57Z" fill="#FFFFFF" fill-opacity="1.000000" fill-rule="nonzero"/>
	</g>
	<rect id="Logotype/logo_name" rx="0.000000" width="114.760002" height="38.600002" transform="translate(60.780468 13.404004)" fill="#FFFFFF" fill-opacity="0"/>
	<path id="pin" d="M150.53 18C151.11 18.54 151.8 18.81 152.6 18.81C153.41 18.81 154.1 18.54 154.67 18C155.24 17.46 155.53 16.81 155.53 16.06C155.53 15.31 155.24 14.67 154.67 14.13C154.1 13.59 153.41 13.32 152.6 13.32C151.8 13.32 151.11 13.59 150.53 14.13C149.96 14.67 149.68 15.31 149.68 16.06C149.68 16.81 149.96 17.46 150.53 18ZM129.35 46.06C129.35 46.3 129.35 46.51 129.36 46.68C129.37 49.51 131.39 52.41 132.17 52.41C132.93 52.41 134.96 49.49 134.96 46.65L134.86 37.74C134.87 37.74 134.87 37.74 134.87 37.74C134.91 37.74 134.95 37.77 134.97 37.8C135.21 38.33 135.56 38.85 136.01 39.36C136.47 39.89 137.07 40.32 137.8 40.67C138.54 41.02 139.43 41.19 140.49 41.19C141.97 41.19 143.31 40.81 144.51 40.05C145.71 39.28 146.66 38.14 147.36 36.65C148.06 35.15 148.42 33.31 148.42 31.13C148.42 28.89 148.06 27.02 147.34 25.54C146.61 24.04 145.65 22.93 144.44 22.19C143.24 21.44 141.92 21.07 140.5 21.07C139.41 21.07 138.49 21.26 137.75 21.63C137.02 22 136.43 22.45 135.97 23.01C135.54 23.52 135.21 24.02 134.98 24.52C134.95 24.58 134.9 24.61 134.84 24.61C134.76 24.61 134.7 24.54 134.7 24.46L134.7 22.97C134.7 22.69 134.7 22.55 134.67 22.44C134.58 21.88 134.14 21.44 133.59 21.35C133.47 21.33 133.33 21.33 133.05 21.33L131.5 21.33C130.75 21.33 130.37 21.33 130.09 21.47C129.83 21.6 129.63 21.81 129.5 22.06C129.35 22.35 129.35 22.72 129.35 23.48L129.35 46.06ZM162.92 29.57L162.92 38.72C162.92 39.48 162.92 39.85 162.77 40.14C162.64 40.39 162.44 40.6 162.18 40.73C161.89 40.87 161.52 40.87 160.77 40.87L159.64 40.87C158.89 40.87 158.52 40.87 158.23 40.73C157.98 40.6 157.77 40.39 157.64 40.14C157.5 39.85 157.5 39.48 157.5 38.72L157.5 23.48C157.5 22.72 157.5 22.35 157.64 22.06C157.77 21.81 157.98 21.6 158.23 21.47C158.52 21.33 158.89 21.33 159.64 21.33L160.94 21.33C161.29 21.33 161.47 21.33 161.61 21.36C162.12 21.47 162.52 21.87 162.63 22.37C162.66 22.52 162.66 22.7 162.66 23.05L162.66 24.64C162.66 24.71 162.72 24.77 162.8 24.77C162.85 24.77 162.9 24.74 162.92 24.69C163.36 23.59 164.08 22.72 165.07 22.08C166.09 21.41 167.32 21.07 168.77 21.07C170.13 21.07 171.31 21.37 172.32 21.96C173.33 22.56 174.12 23.4 174.68 24.51C175.24 25.6 175.52 26.91 175.52 28.43L175.52 38.72C175.52 39.48 175.52 39.85 175.37 40.14C175.24 40.39 175.04 40.6 174.78 40.73C174.5 40.87 174.12 40.87 173.37 40.87L172.25 40.87C171.49 40.87 171.12 40.87 170.83 40.73C170.58 40.6 170.37 40.39 170.24 40.14C170.1 39.85 170.1 39.48 170.1 38.72L170.1 29.39C170.1 28.2 169.8 27.27 169.18 26.59C168.56 25.92 167.71 25.58 166.62 25.58C165.89 25.58 165.25 25.73 164.69 26.05C164.13 26.36 163.7 26.82 163.39 27.42C163.08 28.02 162.92 28.73 162.92 29.57ZM152.03 40.87C151.28 40.87 150.9 40.87 150.61 40.73C150.36 40.6 150.16 40.39 150.03 40.14C149.88 39.85 149.88 39.48 149.88 38.72L149.88 23.48C149.88 22.72 149.88 22.35 150.03 22.06C150.16 21.81 150.36 21.6 150.61 21.47C150.9 21.33 151.28 21.33 152.03 21.33L153.15 21.33C153.9 21.33 154.28 21.33 154.57 21.47C154.82 21.6 155.03 21.81 155.16 22.06C155.3 22.35 155.3 22.72 155.3 23.48L155.3 38.72C155.3 39.48 155.3 39.85 155.16 40.14C155.03 40.39 154.82 40.6 154.57 40.73C154.28 40.87 153.9 40.87 153.15 40.87L152.03 40.87ZM134.66 31.1C134.66 32.26 134.82 33.28 135.14 34.14C135.46 35.01 135.93 35.68 136.54 36.17C137.15 36.64 137.89 36.88 138.77 36.88C139.65 36.88 140.4 36.64 141.01 36.15C141.62 35.66 142.08 34.98 142.39 34.12C142.72 33.24 142.88 32.24 142.88 31.1C142.88 29.97 142.72 28.98 142.41 28.12C142.1 27.27 141.63 26.59 141.02 26.11C140.41 25.63 139.66 25.39 138.77 25.39C137.89 25.39 137.14 25.62 136.53 26.09C135.93 26.55 135.46 27.21 135.14 28.07C134.82 28.93 134.66 29.94 134.66 31.1Z" fill="#0D6EFD" fill-opacity="1.000000" fill-rule="evenodd"/>
	<path id="well" d="M67.2 38.29L61.51 18.44C61 16.62 62.36 14.81 64.25 14.81C65.57 14.81 66.71 15.71 67.02 17L70.79 32.81C70.8 32.88 70.86 32.92 70.92 32.92C70.99 32.92 71.04 32.88 71.06 32.82L75.13 17.3C75.52 15.83 76.85 14.81 78.36 14.81C79.88 14.81 81.21 15.83 81.59 17.3L85.66 32.85C85.68 32.91 85.74 32.96 85.8 32.96C85.87 32.96 85.93 32.91 85.95 32.85L89.71 17C90.02 15.71 91.16 14.81 92.48 14.81C94.37 14.81 95.74 16.62 95.22 18.44L89.54 38.29C89.1 39.82 87.7 40.87 86.1 40.87C84.52 40.87 83.12 39.83 82.68 38.3L78.49 23.93C78.47 23.87 78.42 23.83 78.36 23.83C78.3 23.83 78.25 23.87 78.23 23.93L74.05 38.3C73.61 39.83 72.21 40.87 70.63 40.87C69.03 40.87 67.63 39.82 67.2 38.29ZM103.76 41.26C101.75 41.26 100.02 40.85 98.57 40.04C97.13 39.21 96.01 38.05 95.23 36.55C94.45 35.04 94.06 33.25 94.06 31.19C94.06 29.18 94.45 27.41 95.23 25.89C96.01 24.38 97.11 23.19 98.53 22.34C99.95 21.5 101.63 21.07 103.54 21.07C104.83 21.07 106.03 21.28 107.15 21.69C108.27 22.1 109.24 22.72 110.07 23.54C110.91 24.36 111.57 25.4 112.03 26.65C112.5 27.88 112.73 29.34 112.73 31C112.73 31.82 112.07 32.49 111.24 32.49L97.91 32.49C96.98 32.49 96.23 31.74 96.23 30.81C96.23 29.88 96.98 29.13 97.91 29.13L105.47 29.13C106.66 29.13 107.71 28.09 107.12 27.05C106.78 26.45 106.31 25.98 105.71 25.64C105.11 25.29 104.42 25.12 103.63 25.12C102.81 25.12 102.08 25.31 101.44 25.69C100.82 26.06 100.32 26.57 99.97 27.21C99.61 27.83 99.43 28.53 99.42 29.31L99.42 32.5C99.42 33.47 99.6 34.3 99.95 35.01C100.32 35.71 100.83 36.25 101.5 36.64C102.16 37.02 102.94 37.21 103.85 37.21C104.45 37.21 105 37.12 105.51 36.96C106.01 36.79 106.43 36.53 106.79 36.19C107.44 35.58 108.21 34.98 109.1 35.04L109.56 35.07C111.18 35.18 112.35 36.76 111.37 38.04C111.27 38.18 111.17 38.3 111.05 38.43C110.27 39.32 109.26 40.02 108.02 40.52C106.79 41.01 105.37 41.26 103.76 41.26ZM119.54 17.52L119.54 38.16C119.54 39.66 118.33 40.87 116.83 40.87C115.34 40.87 114.12 39.66 114.12 38.16L114.12 17.52C114.12 16.02 115.34 14.81 116.83 14.81C118.33 14.81 119.54 16.02 119.54 17.52ZM127.16 17.52L127.16 38.16C127.16 39.66 125.94 40.87 124.45 40.87C122.95 40.87 121.74 39.66 121.74 38.16L121.74 17.52C121.74 16.02 122.95 14.81 124.45 14.81C125.94 14.81 127.16 16.02 127.16 17.52Z" fill="#212529" fill-opacity="1.000000" fill-rule="nonzero"/>
</svg>
