<svg width="25.599609" height="25.600098" viewBox="0 0 25.5996 25.6001" fill="none" xmlns="http://www.w3.org/2000/svg" xmlns:xlink="http://www.w3.org/1999/xlink">
	<desc>
			Created with Pixso.
	</desc>
	<defs/>
	<path id="pin" d="M23.21 0C24.65 0 25.59 1 25.59 2.54L25.59 11.18C25.59 13.12 25.59 12.35 25.59 12.8C25.59 13.24 25.59 12.8 25.59 14.41L25.59 23.07C25.59 24.61 24.65 25.6 23.21 25.6C19.96 25.6 16.63 23.08 14.91 18.87C14.81 18.63 14.76 18.51 14.69 18.43C14.62 18.36 14.55 18.3 14.46 18.26C14.36 18.22 14.24 18.21 14 18.2L7.96 17.77C7.72 17.76 7.61 17.75 7.5 17.78C7.41 17.8 7.33 17.84 7.25 17.91C7.17 17.98 7.11 18.08 6.99 18.3C5.75 20.44 4.43 22.12 3.45 22.87C2.9 23.33 2.32 23.54 1.81 23.54C0.77 23.54 0 22.73 0 21.5L0 4.09C0 2.88 0.77 2.05 1.81 2.05C2.32 2.05 2.9 2.26 3.45 2.72C4.43 3.47 5.75 5.15 6.99 7.29C7.11 7.51 7.17 7.61 7.25 7.68C7.33 7.75 7.41 7.79 7.5 7.82C7.61 7.84 7.72 7.84 7.96 7.82L14 7.39C14.24 7.38 14.36 7.37 14.46 7.33C14.55 7.29 14.62 7.23 14.69 7.16C14.76 7.08 14.81 6.96 14.91 6.72C16.63 2.51 19.96 0 23.21 0Z" fill="#FFFFFF" fill-opacity="1.000000" fill-rule="nonzero"/>
</svg>
